PathFileType	4	(X/Y/Z)	C:/Users/opensim2020/Desktop/walking_exp_matlab/subject06_walking12_static.trc																																																																																																																																														
DataRate	CameraRate	NumFrames	NumMarkers	Units	OrigDataRate	OrigDataStartFrame	OrigNumFrames																																																																																																																																										
100	100	5	48	mm	100	182	363																																																																																																																																										
Frame#	Time	LFHD			RFHD			LBHD			RBHD			C7			T10			CLAV			STRN			RBAK			LSHO			LUPA			LELB			LFRM			LWRA			LWRB			LFIN			RSHO			RUPA			RELB			RFRM			RWRA			RWRB			RFIN			LASI			RASI			LPSI			RPSI			LTHI			LKNE			LTIB			LANK			LHEE			LTOE			RTHI			RKNE			RTIB			RANK			RHEE			RTOE			*39			*40			*41			*42			*43			*44			*45			*46			*47		
		X1	Y1	Z1	X2	Y2	Z2	X3	Y3	Z3	X4	Y4	Z4	X5	Y5	Z5	X6	Y6	Z6	X7	Y7	Z7	X8	Y8	Z8	X9	Y9	Z9	X10	Y10	Z10	X11	Y11	Z11	X12	Y12	Z12	X13	Y13	Z13	X14	Y14	Z14	X15	Y15	Z15	X16	Y16	Z16	X17	Y17	Z17	X18	Y18	Z18	X19	Y19	Z19	X20	Y20	Z20	X21	Y21	Z21	X22	Y22	Z22	X23	Y23	Z23	X24	Y24	Z24	X25	Y25	Z25	X26	Y26	Z26	X27	Y27	Z27	X28	Y28	Z28	X29	Y29	Z29	X30	Y30	Z30	X31	Y31	Z31	X32	Y32	Z32	X33	Y33	Z33	X34	Y34	Z34	X35	Y35	Z35	X36	Y36	Z36	X37	Y37	Z37	X38	Y38	Z38	X39	Y39	Z39	X40	Y40	Z40	X41	Y41	Z41	X42	Y42	Z42	X43	Y43	Z43	X44	Y44	Z44	X45	Y45	Z45	X46	Y46	Z46	X47	Y47	Z47	X48	Y48	Z48
																																																																																																																																																	
182	1.81	397.26169	1678.88208	657.95233	413.09821	1665.91968	527.15912	528.14026	1619.47913	674.56757	541.90936	1612.72656	545.70465	530.22565	1460.05115	614.14166	556.46405	1133.00903	599.8158	417.18872	1388.53345	605.40973	372.32132	1214.79004	608.12726	602.65649	1289.4386	531.78638	465.3042	1415.86841	770.50531	446.07947	1215.36877	845.72333	433.35413	1104.771	863.15192	377.79254	966.66656	893.73456	291.40558	867.74994	858.93933	349.46643	850.66406	896.22748	288.93875	782.7746	902.034	473.58661	1419.81433	449.44684	477.88187	1225.86316	349.70663	441.23572	1113.48218	319.3363	411.93237	1001.53607	281.9137	333.69861	867.18353	280.80359	392.04358	868.57617	247.89793	347.33374	799.75476	227.82921	379.83594	973.77783	700.12756	383.78766	981.30292	480.99103	535.86078	1004.99011	675.75226	532.44946	1011.26318	509.57257	481.42545	666.63684	779.23248	500.54752	503.45813	769.12811	544.94403	252.62788	794.26343	543.25665	74.96474	771.44043	582.89801	56.28675	729.58917	395.26636	39.19481	770.39294	478.60904	650.68823	412.28214	493.4953	525.68671	428.14713	562.1579	269.60526	406.78452	575.05035	78.57301	436.27405	612.89819	51.2382	479.41455	418.5235	35.85182	431.75174	505.43658	1713.18103	610.88116	NaN	NaN	NaN	NaN	NaN	NaN	NaN	NaN	NaN	NaN	NaN	NaN	NaN	NaN	NaN	NaN	NaN	NaN	NaN	NaN	NaN	NaN	NaN	NaN
183	1.82	397.30215	1678.87	657.87946	413.15463	1665.91211	527.08893	528.17847	1619.48303	674.5271	541.97211	1612.72473	545.68353	530.28278	1460.05151	614.11676	556.50623	1132.99255	599.83313	417.23755	1388.52258	605.36206	372.34842	1214.8219	608.09723	602.70502	1289.46179	531.83417	465.33878	1415.89197	770.46515	446.0752	1215.39001	845.67877	433.37366	1104.80469	863.11902	377.90427	966.66815	893.78131	291.47574	867.73138	858.8479	349.53522	850.66797	896.13879	289.03625	782.76532	901.98798	473.68094	1419.80591	449.43668	477.98087	1225.83533	349.69406	441.34668	1113.30835	319.58939	411.93576	1001.52802	281.90887	333.68546	867.18744	280.8071	392.03531	868.56866	247.9245	347.31522	799.78149	227.8889	379.85037	973.7771	700.13776	383.79254	981.25635	481.03638	535.86761	1004.97717	675.75037	532.45685	1011.27405	509.57266	481.46988	666.66217	779.25787	500.60068	503.48227	769.17401	544.97406	252.64827	794.30182	543.25031	74.95159	771.43146	582.87982	56.25439	729.56146	395.2923	39.18547	770.40179	478.62152	650.7182	412.2637	493.47977	525.65521	428.09137	562.16205	269.59369	406.79675	575.0274	78.59726	436.24557	612.90839	51.24629	479.42596	418.50684	35.87447	431.78235	505.38489	1713.20911	610.73444	NaN	NaN	NaN	NaN	NaN	NaN	NaN	NaN	NaN	NaN	NaN	NaN	NaN	NaN	NaN	NaN	NaN	NaN	NaN	NaN	NaN	NaN	NaN	NaN
184	1.83	397.33646	1678.85339	657.85345	413.17261	1665.91345	527.05231	528.27802	1619.50403	674.50244	542.03619	1612.71472	545.65015	530.33801	1460.05029	614.1377	556.56195	1132.96387	599.85687	417.29218	1388.54236	605.34229	372.35519	1214.83899	608.0863	602.71674	1289.41638	531.79449	465.38577	1415.92151	770.46863	446.05087	1215.41699	845.63379	433.3934	1104.81079	863.03418	377.90625	966.72571	893.659	291.54126	867.71423	858.78833	349.6221	850.66876	896.08887	289.09964	782.70898	901.89935	473.76062	1419.80737	449.40744	478.13922	1225.77283	349.90845	441.38806	1113.30652	319.59607	411.96887	1001.53735	281.91519	333.64478	867.19733	280.83142	391.98163	868.55396	247.92265	347.2814	799.76965	227.91	379.88068	973.76282	700.12994	383.80908	981.26624	481.00717	535.86609	1004.97662	675.76099	532.48633	1011.26477	509.5914	481.51047	666.66479	779.31848	500.61588	503.48517	769.18488	544.96619	252.62965	794.33472	543.25098	74.9572	771.45911	582.89148	56.25098	729.56183	395.2829	39.207	770.42163	478.61234	650.6814	412.30945	493.49765	525.68103	428.08383	562.17114	269.58127	406.83435	575.04474	78.59651	436.28976	612.91357	51.23997	479.45651	418.49194	35.89713	431.81387	505.51999	1713.19067	610.78882	NaN	NaN	NaN	NaN	NaN	NaN	NaN	NaN	NaN	NaN	NaN	NaN	NaN	NaN	NaN	NaN	NaN	NaN	NaN	NaN	NaN	NaN	NaN	NaN
185	1.84	397.36032	1678.84839	657.77411	413.25961	1665.87939	527.00482	528.35297	1619.52185	674.47571	542.08398	1612.7522	545.6145	530.41022	1460.05872	614.11646	556.60016	1132.95056	599.84003	417.34918	1388.57813	605.37415	372.3558	1214.9071	608.06396	602.77985	1289.40869	531.79352	465.44193	1415.95386	770.44305	446.07907	1215.45178	845.60858	433.41446	1104.85425	862.9942	378.03928	966.70581	893.66693	291.62592	867.72418	858.7439	349.71329	850.66797	896.02155	289.22043	782.7627	901.89618	473.80734	1419.77942	449.37958	478.19879	1225.72217	349.92032	441.36948	1113.44641	319.35889	411.91824	1001.56677	281.7659	333.65161	867.21637	280.88345	391.99567	868.54547	247.97061	347.23758	799.69763	227.99086	379.89697	973.74634	700.10034	383.62094	981.31885	480.90689	535.89313	1004.97113	675.77496	532.50555	1011.2486	509.59958	481.48984	666.63458	779.24475	500.62659	503.48209	769.1825	544.97882	252.67645	794.34674	543.25684	74.98217	771.48938	582.96613	56.28339	729.53986	395.28162	39.18651	770.42206	478.6181	650.69592	412.30124	493.4949	525.66248	428.10059	562.15985	269.5979	406.81723	575.03967	78.55787	436.31256	612.92053	51.21355	479.44388	418.50916	35.87717	431.76724	505.43195	1713.22083	610.65918	NaN	NaN	NaN	NaN	NaN	NaN	NaN	NaN	NaN	NaN	NaN	NaN	NaN	NaN	NaN	NaN	NaN	NaN	NaN	NaN	NaN	NaN	NaN	NaN
186	1.85	397.39584	1678.86084	657.75574	413.28915	1665.89844	526.9577	528.40808	1619.55212	674.4079	542.15485	1612.74854	545.58063	530.4801	1460.05676	614.08923	556.89612	1133.17529	600.09882	417.39951	1388.60815	605.35394	372.33554	1214.98425	608.07391	602.81677	1289.39355	531.76367	465.48788	1415.99426	770.42871	446.09198	1215.48022	845.57605	433.44379	1104.88293	863.00183	378.08029	966.73438	893.64075	291.70856	867.71954	858.68054	349.79477	850.68561	895.94733	289.32138	782.72845	901.79944	473.91458	1419.77966	449.35919	478.25272	1225.71338	349.89734	441.44733	1113.28894	319.60956	412.01376	1001.50519	281.96216	333.61847	867.22192	280.90067	391.97543	868.53522	248.02802	347.22113	799.71503	228.02402	379.92404	973.76855	700.10773	383.82468	981.25964	480.95206	535.91315	1004.98022	675.78625	532.52802	1011.2309	509.59766	481.49673	666.65338	779.2644	500.621	503.46191	769.16907	545.00739	252.65373	794.33563	543.28186	74.95718	771.45386	582.93304	56.26714	729.58423	395.41815	39.21605	770.51385	478.60165	650.66077	412.29803	493.46765	525.65851	428.10828	562.16254	269.59094	406.82617	575.06915	78.5808	436.28036	612.91577	51.22338	479.44818	418.48999	35.90209	431.81256	505.55301	1713.23059	610.69757	NaN	NaN	NaN	NaN	NaN	NaN	NaN	NaN	NaN	NaN	NaN	NaN	NaN	NaN	NaN	NaN	NaN	NaN	NaN	NaN	NaN	NaN	NaN	NaN
